<?xml version="1.0" encoding="UTF-8" standalone="no"?>
<!-- Created with Inkscape (http://www.inkscape.org/) -->

<svg
   xmlns:dc="http://purl.org/dc/elements/1.1/"
   xmlns:cc="http://creativecommons.org/ns#"
   xmlns:rdf="http://www.w3.org/1999/02/22-rdf-syntax-ns#"
   xmlns:svg="http://www.w3.org/2000/svg"
   xmlns="http://www.w3.org/2000/svg"
   xmlns:sodipodi="http://sodipodi.sourceforge.net/DTD/sodipodi-0.dtd"
   xmlns:inkscape="http://www.inkscape.org/namespaces/inkscape"
   width="210mm"
   height="297mm"
   viewBox="0 0 210 297"
   version="1.1"
   id="svg5702"
   inkscape:version="0.92.2 5c3e80d, 2017-08-06"
   sodipodi:docname="Logo_P4T.svg">
  <defs
     id="defs5696" />
  <sodipodi:namedview
     id="base"
     pagecolor="#ffffff"
     bordercolor="#666666"
     borderopacity="1.0"
     inkscape:pageopacity="0.0"
     inkscape:pageshadow="2"
     inkscape:zoom="0.98994949"
     inkscape:cx="320.78334"
     inkscape:cy="750.19584"
     inkscape:document-units="mm"
     inkscape:current-layer="layer1"
     showgrid="false"
     inkscape:window-width="1440"
     inkscape:window-height="800"
     inkscape:window-x="0"
     inkscape:window-y="1"
     inkscape:window-maximized="1" />
  <metadata
     id="metadata5699">
    <rdf:RDF>
      <cc:Work
         rdf:about="">
        <dc:format>image/svg+xml</dc:format>
        <dc:type
           rdf:resource="http://purl.org/dc/dcmitype/StillImage" />
        <dc:title></dc:title>
      </cc:Work>
    </rdf:RDF>
  </metadata>
  <g
     inkscape:label="Layer 1"
     inkscape:groupmode="layer"
     id="layer1">
    <g
       id="g6332"
       transform="translate(-3.4017857,2.6458333)">
      <rect
         y="48.66964"
         x="57.830357"
         height="86.556549"
         width="68.035721"
         id="rect6323"
         style="opacity:1;fill:#ffffff;fill-opacity:1;stroke:none;stroke-width:4.39363194;stroke-linecap:round;stroke-linejoin:round;stroke-miterlimit:4;stroke-dasharray:none;stroke-dashoffset:0;stroke-opacity:1" />
      <path
         style="fill:#77c2d7;stroke-width:0.26458332"
         d="M 89.958322,151.82873 C 82.206793,151.03418 75.240367,149.06681 68.579638,145.79122 62.024525,142.56757 56.993535,138.95271 51.858099,133.77648 42.381348,124.22446 36.635692,112.39724 34.622628,98.297917 34.124554,94.809447 34.204633,86.06902 34.769287,82.290624 37.448386,64.363355 47.255283,49.118003 62.492973,39.192652 73.073837,32.30061 87.092298,28.752655 99.738982,29.765999 c 12.477108,0.999756 22.955428,4.953117 32.765238,12.361977 12.59252,9.510495 20.98553,23.708328 23.51303,39.775206 0.67403,4.284715 0.67208,13.779905 -0.004,17.849945 -2.2501,13.552273 -7.6415,24.395063 -16.82003,33.827173 -11.61396,11.93483 -27.4729,18.55137 -44.067938,18.38569 -2.33268,-0.0233 -4.65796,-0.0851 -5.16728,-0.13726 z m 25.929168,-18.94757 v -1.4001 l -3.30379,-0.41926 c -2.05061,-0.26023 -3.56546,-0.59072 -3.99365,-0.87128 -0.37942,-0.24861 -0.978,-1.0814 -1.33018,-1.85066 -0.64007,-1.39809 -0.6403,-1.40204 -0.57041,-9.83332 l 0.0699,-8.43466 1.81489,-0.0789 c 5.21699,-0.22678 7.71581,1.8127 8.4356,6.88494 0.17091,1.20438 0.43478,2.27726 0.58638,2.38418 0.44053,0.31067 2.12434,0.23232 2.47168,-0.11502 0.37378,-0.37378 0.45977,-24.448493 0.0894,-25.032503 -0.14561,-0.22961 -0.65859,-0.31906 -1.5173,-0.26459 l -1.29732,0.0823 -0.1959,1.57721 c -0.36571,2.94438 -0.94458,4.40149 -2.27741,5.732673 -1.49565,1.49378 -2.51958,1.8148 -5.79492,1.81677 l -2.4474,10e-4 -0.0228,-14.35365 c -0.0125,-7.894505 -0.0423,-19.770989 -0.0661,-26.392187 l -0.0434,-12.038541 -4.26179,-0.07252 -4.261788,-0.07252 -6.96994,9.446423 -6.969942,9.446427 0.761095,0.547968 c 0.418603,0.301384 1.389536,1.050914 2.157632,1.665623 l 1.396545,1.11765 0.89536,-1.11765 c 0.49246,-0.614709 2.06439,-2.706605 3.49319,-4.648657 2.05552,-2.793905 2.64721,-3.442753 2.83441,-3.108238 0.25108,0.448664 0.30853,38.941172 0.0587,39.345372 -0.21592,0.34937 -29.482446,0.30574 -29.482446,-0.0439 0,-0.15315 1.961438,-2.921353 4.358754,-6.151563 2.397313,-3.23021 4.361844,-6.08047 4.365625,-6.3339 0.0063,-0.42223 -0.264372,-0.44682 -3.234275,-0.29392 -1.78263,0.0918 -3.2512,0.18007 -3.263487,0.19621 -0.804825,1.05666 -8.598741,11.686273 -9.021062,12.303233 -0.54869,0.80157 -0.613888,1.19969 -0.613888,3.74867 0,1.56852 0.07227,3.04019 0.160599,3.27037 0.144294,0.37603 2.010672,0.41851 18.383501,0.41851 h 18.222899 l 0.15803,0.62963 c 0.0869,0.34629 0.11894,4.24559 0.0712,8.6651 -0.0743,6.8707 -0.15031,8.15054 -0.52472,8.82923 -0.99745,1.80809 -2.59176,2.57928 -6.44128,3.11575 l -2.381251,0.33184 -0.08378,1.01601 c -0.156049,1.8925 -1.330915,1.75411 14.892129,1.75411 h 14.69268 z"
         id="path6318"
         inkscape:connector-curvature="0" />
      <path
         style="fill:#f56d56;stroke-width:0.26458332"
         d="m 108.78032,129.88501 c -0.76729,-0.53743 -0.59557,-0.6972 1.65569,-1.54036 7.9121,-2.9633 14.53566,-10.19413 16.9409,-18.4941 1.96915,-6.79512 1.37476,-13.840653 -1.70322,-20.189173 -3.36292,-6.936183 -9.0562,-12.020183 -16.26849,-14.527467 -2.42016,-0.841346 -2.77813,-1.061273 -2.77813,-1.706827 0,-1.011359 0.59434,-1.05787 3.03548,-0.237556 14.13329,4.749326 22.74138,18.9357 20.36844,33.567793 -0.44607,2.75059 -1.57278,6.37009 -2.65737,8.53666 -3.00642,6.00565 -8.45749,11.31257 -14.47618,14.09338 -2.20989,1.02103 -3.19917,1.14061 -4.11712,0.49765 z M 76.989583,100.08386 C 76.03603,97.870707 75.443472,95.509567 75.119855,92.633607 l -0.300892,-2.67402 -4.270423,-0.0257 c -4.967835,-0.0299 -7.914224,-0.600147 -8.049127,-1.557848 -0.08798,-0.624584 1.691343,-4.397497 2.907501,-6.165123 0.468886,-0.6815 1.478494,-1.919996 2.243576,-2.752214 l 1.391058,-1.513123 -2.836924,-2.855433 c -2.562767,-2.579497 -4.821298,-5.668116 -4.821298,-6.5933 0,-0.438394 3.430865,-1.804567 5.953125,-2.37054 3.038763,-0.681871 7.337163,-0.637185 9.971892,0.103669 4.2487,1.194681 9.050345,3.969777 11.186179,6.465012 1.95315,2.281814 2.78958,6.080212 2.27459,10.329343 -0.70768,5.839002 -2.32998,9.534267 -5.7902,13.188857 -2.155319,2.27638 -6.1069,5.263093 -6.960401,5.260853 -0.26638,-8e-4 -0.658548,-0.53056 -1.028928,-1.39019 z M 122.29008,77.819118 c -3.16124,-3.429545 -4.49675,-6.119846 -3.97536,-8.008148 0.38867,-1.407666 1.70885,-3.360174 3.72691,-5.512012 l 1.73694,-1.852083 1.10705,1.058333 c 1.45038,1.386533 3.21306,3.675425 3.95789,5.139404 0.86681,1.703732 0.66866,3.505875 -0.5947,5.408623 -1.16981,1.761868 -4.09555,4.930098 -4.55275,4.930098 -0.18306,0 -0.81575,-0.523897 -1.40598,-1.164215 z M 90.583172,74.353124 c -0.0838,-0.218281 -0.0862,-0.56901 -0.005,-0.779399 0.14953,-0.389673 2.15252,-1.089133 3.94472,-1.377529 0.96567,-0.155395 0.99219,-0.137961 0.99219,0.652288 0,0.958577 -0.0805,1.019855 -1.99411,1.518293 -1.87892,0.489394 -2.7458,0.485367 -2.93729,-0.01365 z"
         id="path6316"
         inkscape:connector-curvature="0" />
      <path
         style="fill:#1a4b56;stroke-width:0.26458332"
         d="m 108.78032,129.88501 c -0.76729,-0.53743 -0.59557,-0.6972 1.65569,-1.54036 7.9121,-2.9633 14.53566,-10.19413 16.9409,-18.4941 1.96915,-6.79512 1.37476,-13.840653 -1.70322,-20.189173 -3.36292,-6.936183 -9.0562,-12.020183 -16.26849,-14.527467 -2.42016,-0.841346 -2.77813,-1.061273 -2.77813,-1.706827 0,-1.011359 0.59434,-1.05787 3.03548,-0.237556 14.13329,4.749326 22.74138,18.9357 20.36844,33.567793 -0.44607,2.75059 -1.57278,6.37009 -2.65737,8.53666 -3.00642,6.00565 -8.45749,11.31257 -14.47618,14.09338 -2.20989,1.02103 -3.19917,1.14061 -4.11712,0.49765 z m 13.50976,-52.065892 c -3.16124,-3.429545 -4.49675,-6.119846 -3.97536,-8.008148 0.38867,-1.407666 1.70885,-3.360174 3.72691,-5.512012 l 1.73694,-1.852083 1.10705,1.058333 c 1.45038,1.386533 3.21306,3.675425 3.95789,5.139404 0.86681,1.703732 0.66866,3.505875 -0.5947,5.408623 -1.16981,1.761868 -4.09555,4.930098 -4.55275,4.930098 -0.18306,0 -0.81575,-0.523897 -1.40598,-1.164215 z M 90.583172,74.353124 c -0.0838,-0.218281 -0.0862,-0.56901 -0.005,-0.779399 0.14953,-0.389673 2.15252,-1.089133 3.94472,-1.377529 0.96567,-0.155395 0.99219,-0.137961 0.99219,0.652288 0,0.958577 -0.0805,1.019855 -1.99411,1.518293 -1.87892,0.489394 -2.7458,0.485367 -2.93729,-0.01365 z"
         id="path6314"
         inkscape:connector-curvature="0" />
    </g>
  </g>
</svg>
